<?xml version="1.0" encoding="utf-8"?>
<!-- Generator: Adobe Illustrator 25.2.0, SVG Export Plug-In . SVG Version: 6.00 Build 0)  -->
<svg version="1.1" id="Layer_1" xmlns="http://www.w3.org/2000/svg" xmlns:xlink="http://www.w3.org/1999/xlink" x="0px" y="0px"
	 viewBox="0 0 2855 595.3" style="enable-background:new 0 0 2855 595.3;" xml:space="preserve">
<style type="text/css">
	.st0{fill:#6C63FF;}
	.st1{fill:#F2F2F2;}
	.st2{fill:#3F3D56;}
	.st3{fill:#2F2E41;}
	.st4{fill:#A0616A;}
	.st5{fill:#E6E6E6;}
	.st6{fill:#FFB8B8;}
	.st7{fill:#CCCCCC;}
</style>
<circle class="st0" cx="1933.9" cy="548" r="46"/>
<path class="st1" d="M2208.7,591.4c25.7-7.7,53.1-15.8,73.5-34.2c18.2-16.4,30.6-41.5,23-66.1c-7.5-24.6-30.1-41-53.4-49.1
	c-13.2-4.6-27.1-7.2-40.9-9.2c-15-2.2-30.1-4-45.2-5.7c-61.1-7-122.5-11.3-184-12.8c-30.4-0.8-60.8-0.7-91.2-0.3
	c-27.1,0.4-55.7,0.4-80.9-11.2c-19.6-9-37.3-25.3-42.8-46.7c-6.3-24.8,5.3-50,22-67.9c8.8-9.5,19-17.4,29.6-24.7
	c11.5-7.9,23.4-15.3,35.5-22.2c23.9-13.5,48.9-25.1,74.8-34.5c12.7-4.6,25.7-8.6,38.7-12.3c11-3.1,22.1-6.2,32.7-10.5
	c20.6-8.2,40.2-22.1,45.4-44.9c5-21.6-3.4-45-18.1-61.1c-17-18.6-42.5-26.7-67.1-28c-27.5-1.5-54.4,5.4-80.3,14.2
	c-27.6,9.3-54.6,20-82.8,27.6c-27.9,7.5-56.4,12.8-85.2,15.8c-14.1,1.5-28.6,3.2-42.8,2c-11.9-1-23.7-4.5-32.4-12.9
	c-7.5-7.2-12-17.2-10.4-27.6c0.3-1.9,3.2-1.1,2.9,0.8c-1.9,12.8,6.8,24.5,17.5,30.5c12.3,7,27.4,7,41.1,6.2
	c29.8-1.8,59.4-6.1,88.5-12.8c28.6-6.5,56.2-15.9,83.7-25.8c26.2-9.5,52.9-18.7,80.8-20.8c24.2-1.8,49.8,1.8,70.9,14.4
	c18.6,11.1,32.2,29.7,36.6,51c4.3,20.8-1.6,41.8-17.4,56.3c-16.3,15-38.7,21.5-59.6,27.4c-26.5,7.5-52.3,16.3-77.4,27.7
	c-25.4,11.5-49.8,25.2-72.8,40.9c-22.2,15.2-44.2,34.3-51.2,61.5c-3.3,12.6-2.7,26,2.8,38c4.9,10.6,12.9,19.5,22.3,26.4
	c22.3,16.4,50.5,19.8,77.4,20.1c30.3,0.4,60.6-0.6,90.9-0.1c61.7,1,123.3,4.8,184.8,11.3c15.4,1.6,30.8,3.4,46.2,5.4
	c13.8,1.8,27.7,3.5,41.3,6.7c24.2,5.6,47.7,16.4,62.7,36.9c6.7,8.9,10.8,19.4,11.9,30.4c1.1,11.5-1.8,23.1-7,33.3
	c-11.5,22.7-33.1,37.1-56.1,46.6c-12.3,5.1-25,8.9-37.8,12.7C2207.7,594.9,2206.9,592,2208.7,591.4L2208.7,591.4z"/>
<circle class="st1" cx="1628.4" cy="69.5" r="24"/>
<circle class="st1" cx="1794.9" cy="115" r="24"/>
<circle class="st1" cx="1935.9" cy="24" r="24"/>
<circle class="st1" cx="2023.9" cy="126" r="24"/>
<circle class="st1" cx="1904.9" cy="244" r="24"/>
<ellipse transform="matrix(0.1602 -0.9871 0.9871 0.1602 1175.8782 1984.0791)" class="st1" cx="1753.9" cy="301" rx="24" ry="24"/>
<circle class="st1" cx="1913.9" cy="390" r="24"/>
<circle class="st1" cx="2085.9" cy="440" r="24"/>
<circle class="st1" cx="2286.9" cy="429" r="24"/>
<path class="st0" d="M1929,68c-71.9,0.5-130.8,58.9-131.8,130.8c0,0.7,0,5.3,0,11.4c0,18.6,15.1,33.7,33.7,33.7h0
	c18.6,0,33.8-15.1,33.8-33.8c0,0,0,0,0,0c0-4.2,0-7,0-7.2c0-35.3,28.6-64,64-64s64,28.6,64,64c0,21.8-11.1,42.1-29.5,53.9l0,0
	c0,0-48,30.9-62.7,73.3l0,0c-2.6,8.7-3.9,17.7-3.9,26.8c0,3.7,0.2,36.3,0.6,62.8c0.3,19,15.8,34.2,34.8,34.2l0,0
	c19.2,0,34.8-15.6,34.8-34.8c0-0.1,0-0.1,0-0.2c-0.1-24.2-0.2-52.4-0.2-54.5c0-26,25.1-52,45.8-68.9c23.8-19.5,40.9-46,47.7-76
	c1.5-6.2,2.4-12.5,2.5-18.8c0-73.3-59.4-132.8-132.7-132.8C1929.7,68,1929.3,68,1929,68z"/>
<path class="st2" d="M2346,595.3h-842.3c-0.7,0-1.2-0.5-1.2-1.2c0-0.7,0.5-1.2,1.2-1.2H2346c0.7,0,1.2,0.5,1.2,1.2
	C2347.2,594.7,2346.7,595.3,2346,595.3z"/>
<circle class="st3" cx="2131" cy="243" r="30"/>
<polygon class="st4" points="2075.6,582.1 2063.3,582.1 2057.5,534.8 2075.6,534.8 "/>
<path class="st3" d="M2054.5,578.6h23.6l0,0v14.9l0,0h-38.5l0,0l0,0C2039.7,585.3,2046.3,578.6,2054.5,578.6z"/>
<polygon class="st4" points="2170.6,582.1 2158.3,582.1 2152.5,534.8 2170.6,534.8 "/>
<path class="st3" d="M2149.5,578.6h23.6l0,0v14.9l0,0h-38.5l0,0l0,0C2134.7,585.3,2141.3,578.6,2149.5,578.6z"/>
<circle class="st4" cx="2126.4" cy="248.6" r="24.6"/>
<path class="st3" d="M2141.1,352.4l11-25.2c5.5-12.1,2.7-26.4-6.9-35.6c-1-1-2-1.8-3.1-2.7c-5.4-4.2-12.1-6.6-19-6.6
	c-4.6,0-9.2,1-13.4,3c-0.4,0.2-0.7,0.3-1.1,0.5c-0.7,0.3-1.4,0.7-2,1.1c-8.7,5-14.6,13.9-15.7,23.9l-4.9,40.6
	c-1.2,3.2-44.7,118.4-29.5,206.3c0.3,1.9,1.9,3.4,3.8,3.7l15.4,2.1c2.3,0.3,4.5-1.2,5-3.5l25.9-123.4c0.4-1.9,2.3-3.1,4.1-2.7
	c1.3,0.3,2.3,1.2,2.7,2.5l36.6,129.8c0.5,1.9,2.3,3.3,4.3,3.3c0.3,0,0.6,0,0.9-0.1l18.8-3.6c2.3-0.4,3.8-2.5,3.6-4.8
	C2174.9,530,2160.2,375.2,2141.1,352.4z"/>
<path class="st4" d="M2031,269c-0.6,5.5,3.3,10.5,8.8,11.2c0.6,0.1,1.2,0.1,1.8,0l13.7,33l10.4-15.4l-14.6-29
	c-0.7-5.5-5.8-9.5-11.3-8.8C2035.1,260.7,2031.5,264.4,2031,269L2031,269z"/>
<path class="st4" d="M2125.1,385.6c5.5-0.7,9.5-5.7,8.8-11.2c-0.1-0.6-0.2-1.2-0.4-1.7l28.9-21l-17.4-6.5l-24.8,21
	c-5.2,2-7.9,7.8-5.9,13C2116,383.5,2120.4,386.2,2125.1,385.6L2125.1,385.6z"/>
<path class="st3" d="M2078,335.2c-1.1,0-2.2-0.1-3.3-0.3c-5.3-1-9.8-4.6-11.9-9.6l-19.2-23.5c-1.6-1.9-1.3-4.8,0.6-6.3
	c0.2-0.1,0.3-0.2,0.5-0.3l13.7-8.5c2.1-1.3,4.9-0.7,6.2,1.5c0,0,0,0,0,0l13.6,22.3l26-19.2c4.8-2.5,10.6-0.7,13.1,4.1
	c2,3.8,1.3,8.5-1.8,11.5l-25.9,23.6C2086.4,333.5,2082.3,335.2,2078,335.2z"/>
<path class="st3" d="M2148.1,370.5c0,0-0.1,0-0.1,0c-1.3,0-2.5-0.6-3.3-1.6l-12.2-14.2c-1.6-1.9-1.4-4.7,0.5-6.3
	c0.1-0.1,0.3-0.2,0.4-0.3l22.8-15.2l-20.6-24.8c-2.8-4.6-1.3-10.6,3.3-13.3c3.7-2.2,8.4-1.7,11.6,1.2l25.1,24.5
	c6.7,6.2,7.2,16.6,1.1,23.3c-1.3,1.5-2.9,2.7-4.7,3.6l-20.5,21.8C2150.6,370,2149.4,370.5,2148.1,370.5z"/>
<path class="st5" d="M2120.2,318.2c-0.2,0-0.4,0-0.6,0c-1.7-0.2-3.2-1.4-3.7-3.1l-9.1-28c-0.5-1.5,0.2-3.1,1.6-3.7l0.3-0.1
	c0.3-0.1,0.5-0.3,0.8-0.4c4.3-2,8.9-3,13.6-3c6.1,0,12.1,1.8,17.2,5.2c1.4,0.9,1.8,2.9,0.9,4.3l-17.2,26.9
	C2123.2,317.4,2121.7,318.2,2120.2,318.2z"/>
<circle class="st3" cx="2154.6" cy="219.8" r="9.8"/>
<path class="st3" d="M2121,209L2121,209c-14.4,0-26,11.6-26,26v11h13.5l6.5-11l1.9,11h41.1l-11-11C2147,220.6,2135.4,209,2121,209z"
	/>
<path class="st3" d="M2159.7,213.1c2.2-7,9.2-11.4,16.5-10.4c6.3,1,11.2,6.1,14.1,11.7c2.9,5.6,4.3,11.9,6.3,17.9
	c2,6,4.8,12.1,9.8,16c5,3.9,12.7,5,17.6,0.9c-1.5,11-11.6,18.7-22.6,17.3c-6.3-0.8-11.8-4.6-14.9-10.1c-2.6-4.6-3.3-10-4-15.3
	c-0.8-5.2-1.8-10.6-4.9-14.9s-8.9-7.1-13.8-5.1L2159.7,213.1z"/>
<path class="st2" d="M1840.5,228L1840.5,228c-18.6,0-33.7-15.1-33.7-33.7c0-6.1,0-10.8,0-11.4c0.3-20.9,5.5-41.4,15.4-59.9
	c-16.1,22.1-25,48.6-25.4,75.9c0,0.7,0,5.3,0,11.4c0,18.6,15.1,33.7,33.7,33.7l0,0c15.1,0,28.4-10,32.5-24.6
	C1856.8,225,1848.8,228,1840.5,228z"/>
<path class="st2" d="M1931.3,139.1c35.3,1.7,62.6,31.7,60.9,67c-0.4,7.7-2.1,15.3-5.2,22.4c22.9-26.9,19.7-67.3-7.2-90.2
	s-67.3-19.7-90.2,7.2c-4.1,4.8-7.5,10.2-10,16C1892.4,146.4,1911.5,138.1,1931.3,139.1z"/>
<path class="st2" d="M1941.7,438L1941.7,438c-19,0-34.5-15.2-34.8-34.2c-0.4-26.5-0.6-59.1-0.6-62.8c0-9.1,1.3-18.1,3.9-26.8l0,0
	c1.5-4.4,3.4-8.6,5.5-12.7c-6.6,8.7-11.8,18.4-15.5,28.7l0,0c-2.6,8.7-3.9,17.7-3.9,26.8c0,3.7,0.2,36.3,0.6,62.8
	c0.3,19,15.8,34.2,34.8,34.2l0,0c15.5,0,29.1-10.2,33.4-25C1958.7,434.8,1950.3,438.1,1941.7,438z"/>
<polygon class="st6" points="1629.1,582.6 1641.3,582.6 1647.2,535.3 1629.1,535.3 "/>
<path class="st3" d="M1665,594l-38.5,0l0,0l0-14.9l0,0l23.6,0C1658.3,579.1,1665,585.7,1665,594L1665,594L1665,594z"/>
<polygon class="st6" points="1585.1,582.6 1597.3,582.6 1603.2,535.3 1585.1,535.3 "/>
<path class="st3" d="M1621,594l-38.5,0l0,0l0-14.9l0,0l23.6,0C1614.3,579.1,1621,585.7,1621,594L1621,594L1621,594z"/>
<path class="st3" d="M1595.8,568l-12-0.6c-2.6-0.1-4.6-2.3-4.4-4.9c0,0,0,0,0-0.1l14.3-158.5l65.9,17.8l6.4-1.7l-19.9,140.3
	c-0.3,2.2-2.2,3.8-4.4,3.9l-12.9,0.6c-2.6,0.1-4.8-1.8-4.9-4.4c0-0.1,0-0.3,0-0.4l2.3-84.2c0-0.9-0.7-1.6-1.5-1.6
	c-0.8,0-1.4,0.5-1.6,1.2l-22.6,88.8c-0.4,2.2-2.4,3.7-4.6,3.7C1596,568,1595.9,568,1595.8,568z"/>
<circle class="st6" cx="1631.3" cy="249.8" r="24.6"/>
<path class="st7" d="M1590.4,321.9l2.7,58.3l1,21.2c0.1,1.9,1.3,3.5,3.1,4.2l63.3,22.9c0.5,0.2,1.1,0.3,1.6,0.3
	c2.6,0,4.7-2.1,4.7-4.6c0-0.1,0-0.1,0-0.2l-2.6-104.8c-0.4-17.7-13.3-32.7-30.7-35.7c-0.6-0.1-1.2-0.2-1.9-0.3
	c-10.6-1.3-21.3,2.1-29.2,9.4C1594.3,300.2,1589.9,310.9,1590.4,321.9L1590.4,321.9z"/>
<path class="st6" d="M1690.7,416.9c-5.3-1.6-8.3-7.3-6.6-12.6c0.3-0.9,0.7-1.8,1.3-2.6l-21.5-28.6l18.5-1.1l17.6,27.3
	c4.4,3.4,5.2,9.8,1.8,14.2C1699.2,416.8,1694.8,418.2,1690.7,416.9z"/>
<path class="st7" d="M1675.6,396.5c-1.1-0.5-2.1-1.4-2.5-2.5l-32.4-77.1c-2.7-6.3,0.3-13.7,6.7-16.3c6.3-2.7,13.7,0.3,16.3,6.7
	c0,0,0,0,0,0l32.4,77.1c1,2.4-0.1,5.1-2.5,6.1l-14.4,6C1678.1,396.9,1676.8,397,1675.6,396.5L1675.6,396.5z"/>
<path class="st2" d="M1623.4,393.8l31.1-59.5c1.2-2.4,4.2-3.3,6.6-2.1l45.1,23.6c2.4,1.2,3.3,4.2,2.1,6.6l-31.1,59.5
	c-1.2,2.4-4.2,3.3-6.6,2.1l-45.1-23.6C1623.1,399.1,1622.2,396.1,1623.4,393.8z"/>
<path class="st6" d="M1644.2,366.6c-2-5.2-7.8-7.8-13-5.9c-0.9,0.3-1.8,0.8-2.6,1.4l-29.8-19.8l-0.1,18.6l28.3,15.9
	c3.7,4.2,10.1,4.6,14.3,1C1644.6,375,1645.8,370.5,1644.2,366.6L1644.2,366.6z"/>
<path class="st7" d="M1606.6,370.7l-24.3-19.3c-9-3-13.8-12.7-10.8-21.7c0.7-2,1.7-3.8,3-5.4l22.1-29c3.5-4.3,9.9-5,14.2-1.4
	c3.5,2.8,4.6,7.6,2.9,11.7l-17.5,28.6l25.7,12.2c2.3,1.1,3.3,3.9,2.2,6.2c-0.1,0.2-0.2,0.3-0.3,0.5l-10.4,16.4
	c-0.7,1.1-1.9,1.9-3.2,2.1c0,0-0.1,0-0.1,0C1608.9,371.9,1607.6,371.6,1606.6,370.7z"/>
<path class="st3" d="M1612.7,266.2c-0.4-1.1,0.2-2.3,1.3-2.7c0.2-0.1,0.3-0.1,0.5-0.1c1.3,0.1,2.6,0.7,3.5,1.7
	c0.9,1,1.9,1.9,3.1,2.6c1.2,0.6,2.8,0.5,3.5-0.6c0.6-1.1,0.2-2.5-0.2-3.8c-1-3.2-1.5-6.5-1.6-9.8c-0.1-3.7,0.4-7.6,2.5-10.4
	c2.6-3.7,7.4-5.1,11.8-5s8.9,1.5,13.3,2.4c1.5,0.3,3.3,0.5,4.4-0.7c1.1-1.3,0.7-3.3,0.2-5c-1.2-4.4-2.5-9-5.3-12.6
	c-3-3.7-7.3-6.1-12.1-6.8c-4.5-0.6-9.2,0-13.5,1.5c-7,2.2-13.2,6.5-17.7,12.3c-4.6,6.2-6.6,13.9-5.6,21.6c1,6.7,4.6,12.7,9.9,16.9
	L1612.7,266.2z"/>
<path class="st2" d="M1923.8,582.8c-23.3-10.1-33.9-37.2-23.8-60.5c1.7-3.9,4-7.6,6.7-11c-20.5,15-25,43.8-10,64.3
	c15,20.5,43.8,25,64.3,10c3.1-2.3,5.9-4.9,8.3-7.8C1956.1,587.4,1938.8,589.3,1923.8,582.8z"/>
</svg>
