<?xml version="1.0" encoding="utf-8"?>
<!-- Generator: Adobe Illustrator 25.2.0, SVG Export Plug-In . SVG Version: 6.00 Build 0)  -->
<svg version="1.1" id="Layer_1" xmlns="http://www.w3.org/2000/svg" xmlns:xlink="http://www.w3.org/1999/xlink" x="0px" y="0px"
	 viewBox="0 0 3066 639.9" style="enable-background:new 0 0 3066 639.9;" xml:space="preserve">
<style type="text/css">
	.st0{fill:#E6E6E6;}
	.st1{fill:#FFFFFF;}
	.st2{fill:#FFB8B8;}
	.st3{fill:#6C63FF;}
	.st4{fill:#2F2E41;}
	.st5{fill:#3F3D56;}
	.st6{fill:#CCCCCC;}
</style>
<path class="st0" d="M2146.6,279.4c-1.1,5.9-2.5,11.7-4,17.5c-0.2,0.7-0.4,1.3-0.5,2h-21.8c-3.9,0-7,3.1-7,7V368
	c-0.7,1.2-1.3,2.5-2,3.7c-3.5,6.3-7.1,12.5-10.7,18.7c-60,100-143.7,183.6-243.7,243.5l5.9-13.4c-2.2-0.2-4.4-0.3-6.5-0.4
	c-47.2-3.2-94.7-6.8-140.8-17.4c-48.3-11.1-95.5-30.4-133.3-62.3c-37.8-32-65.6-77.6-69.4-127c-1.3-17,0.4-34,5.1-50.4
	c8.9-31.5,28.2-59.9,56.2-76.7c43.9-26.3,101.2-21,147.5,0.9c46.3,21.9,84,58.2,120.8,93.8c-37.1-63.7-88.9-117.7-150.9-157.5
	c-20.6-13.2-42.4-24.9-59.9-41.9c-17.5-17-30.4-40.9-27.3-65.1c3.5-27.5,26-48.3,48.5-64.4c9-6.4,18.3-12.5,27.9-18.1
	c27-15.8,56.3-27.8,87.1-32.2c41.8-6,87,3.1,119.1,30.6c36.1,31,50.9,81,49.5,128.9c22.3-32.4,56.6-57.1,95.4-58.2
	c40.2-1.1,78.5,24.4,98.7,59.2C2150.5,197.1,2154.1,239.9,2146.6,279.4z"/>
<path class="st1" d="M1891.9,413.8c23.6-2.1,45.4-4.5,68.2-11c22.1-6.3,43.5-16.8,59.2-33.9c17-18.4,26.1-42.3,32.6-66.2
	c3.6-13.3,6.6-26.7,9.3-40.2c3-14.6,5.7-29.3,8.1-44c4.7-29.3,8-58.9,10-88.6c0.2-3.6,0.5-7.2,0.7-10.8c0.1-2.2-3.3-2.2-3.5,0
	c-1.6,29.3-4.6,58.4-8.9,87.5c-4.2,28.5-9.6,56.9-16.5,85c-5.8,23.7-13.3,47.8-28.2,67.6c-14,18.5-34.1,30.6-55.9,37.9
	c-22.2,7.4-45.5,10.3-68.7,12.5c-2.8,0.3-3.7,0.5-6.5,0.8C1889.7,410.5,1889.7,414,1891.9,413.8L1891.9,413.8z"/>
<path class="st1" d="M1519.7,365.5c29.7,1.6,59.2,6.8,87.7,15.5c28.5,8.6,55.9,20.5,81.7,35.6c24.9,14.5,47.9,31.9,68.8,51.8
	c20.2,19.3,38.2,40.8,53.7,64.1c15.6,23.3,28.5,48.3,38.4,74.5c1.2,3.2,2.4,6.4,3.5,9.7c0.7,2.1,4.1,1.2,3.3-0.9
	c-9.3-26.8-21.7-52.4-36.7-76.4c-15.1-24-32.7-46.3-52.7-66.4c-20.3-20.4-42.9-38.4-67.3-53.7c-51.3-31.9-109.4-51.3-169.6-56.4
	c-3.6-0.3-7.3-0.6-10.9-0.8C1517.5,361.9,1517.5,365.4,1519.7,365.5L1519.7,365.5z"/>
<path class="st1" d="M1681.5,38c19,6,37,14.9,53.5,26.1c16.8,11.6,32.2,25.2,45.7,40.6c14.2,16.1,26.9,33.6,37.8,52.1
	c11.6,19.6,21.6,40,30.1,61.1c8.7,21.7,16,43.9,21.9,66.5c6,22.9,10.7,46.1,14,69.5c3.3,23.2,5.3,46.5,6,69.9c0.7,22.4,0,44.7-2,67
	c-1.8,20.8-5.2,41.4-10.1,61.7c-4.3,18.3-10.4,36.2-18.2,53.4c-1.8,3.9-3.7,7.7-5.7,11.5c-1,2,1.9,3.7,3,1.7
	c8.6-16.4,15.4-33.6,20.4-51.4c5.6-19.8,9.7-40,12.2-60.5c2.8-22.2,4.1-44.5,4-66.9c0-23.5-1.4-47-4.2-70.3
	c-2.7-23.6-6.8-47.1-12.2-70.2c-5.4-23.2-12.2-46-20.4-68.4c-7.9-21.6-17.4-42.7-28.3-62.9c-10.4-19.3-22.6-37.7-36.3-54.9
	c-13-16.3-27.9-31.1-44.4-44c-15.9-12.4-33.4-22.5-52.1-30c-4.6-1.8-9.2-3.5-13.9-4.9C1680.3,34,1679.4,37.4,1681.5,38z"/>
<ellipse class="st0" cx="1886.7" cy="629.9" rx="247.5" ry="10"/>
<path class="st2" d="M2105.4,316.7c-0.1,0.5-0.2,1.1-0.2,1.6l-43,24.8l-10.4-6l-11.1,14.6l22.3,15.9l49-38.7
	c5.4,2,11.5-0.8,13.5-6.2c2-5.4-0.8-11.5-6.2-13.5c-5.4-2-11.5,0.8-13.5,6.2C2105.6,315.8,2105.5,316.3,2105.4,316.7L2105.4,316.7z"
	/>
<path class="st3" d="M2007.6,331.9l33.8,24.1l15.1-19l-32.9-26.4c-5.7-4.6-14.1-3.7-18.7,2.1c-0.2,0.2-0.3,0.4-0.5,0.6l0,0
	C2000.2,319.3,2001.6,327.6,2007.6,331.9L2007.6,331.9z"/>
<polygon class="st2" points="1937.7,607 1949.6,610.1 1967.2,565.8 1949.7,561.2 "/>
<path class="st4" d="M1969.6,627.1l-37.3-9.8l0,0l3.8-14.4l0,0l22.9,6C1966.9,611,1971.7,619.1,1969.6,627.1L1969.6,627.1
	L1969.6,627.1z"/>
<polygon class="st2" points="2043.2,615.4 2055.2,613.2 2052.7,565.7 2034.8,568.8 "/>
<path class="st4" d="M2080.5,620.3l-37.9,6.8l0,0l-2.6-14.7l0,0l23.3-4.2C2071.3,606.8,2079.1,612.2,2080.5,620.3L2080.5,620.3
	L2080.5,620.3z"/>
<path class="st4" d="M2019.4,265.5c3,0.7,5.4,3.8,6.8,7.3c1.3,3.7,2.2,7.5,2.7,11.4c1.1,7.3,2.2,15.1-0.1,21.8
	c-2.8,7.9-10.1,12-16.5,10.1c-6.4-1.9-11.5-9.2-13.2-17.6c-1.6-8.5-0.6-17.2,2.9-25.1c1.8-4.1,4.3-8,7.7-9.8c3.4-2,7.8-1.1,10.1,2.1
	"/>
<path class="st4" d="M2036.2,396.9l23,205.8l-19,7.2l-35-138l-48.7,126.2l-20.8,1.2c0,0,28.5-196.3,49.6-200.8L2036.2,396.9z"/>
<ellipse transform="matrix(0.1602 -0.9871 0.9871 0.1602 1430.0881 2215.2886)" class="st2" cx="2016.9" cy="267.2" rx="24.6" ry="24.6"/>
<path class="st3" d="M2027.5,302.1l-26.5-3.5c0,0-17.3,20.8-16.2,56.5c1.2,35.8-2.9,46.7-2.9,46.7l55.3,1
	C2029.2,391.9,2062.7,328.7,2027.5,302.1z"/>
<path class="st2" d="M2041.7,407.9c-0.6,0-1.1,0.1-1.7,0.1l-34-36.1l3.5-11.5l-16.7-7.5l-10.4,25.4l48.9,38.9
	c-0.7,5.8,3.4,11,9.1,11.7c5.8,0.7,11-3.4,11.7-9.1s-3.4-11-9.1-11.7C2042.6,407.9,2042.2,407.9,2041.7,407.9L2041.7,407.9z"/>
<path class="st3" d="M2004.5,316.1l-15.7,38.4l21.9,10.4l18.2-38c3.2-6.6,0.4-14.6-6.3-17.8c-0.2-0.1-0.5-0.2-0.7-0.3l0,0
	C2015.1,306.1,2007.3,309.3,2004.5,316.1C2004.5,316.1,2004.5,316.1,2004.5,316.1z"/>
<path class="st4" d="M2010.5,289.5c3.8-2.2,4.3-7.6,3.7-12s-1.4-9.3,1.2-12.9c3.1-4.3,9.3-4.4,14.6-4.5c5.3-0.1,11.8-1.7,13.1-6.8
	c0.9-3.4-1-7-3.8-9.1c-2.8-2.1-6.3-3.1-9.7-4c-7.6-2-15.4-4-23.2-2.9c-16,2.3-27.2,17-25.2,33c1.3,9.9,3.1,14.2,1.9,18.5
	c-2.2,8.1-11.8,13.3-12,21.7c-0.1,6.6,5.6,11.6,11.3,15c4.5,2.6,9.3,4.9,14.5,5.5s10.7-0.6,14.6-4.1c5-4.5,6.2-12.1,4.8-18.6
	s-5.1-12.4-8.7-18"/>
<path class="st5" d="M2475.2,296.9h-355c-5,0-9,4-9,9v228c0,5,4,9,9,9h355c5,0,9-4,9-9v-228C2484.2,300.9,2480.2,296.9,2475.2,296.9
	z M2482.2,533.9c0,3.9-3.1,7-7,7h-355c-3.9,0-7-3.1-7-7v-228c0-3.9,3.1-7,7-7h355c3.9,0,7,3.1,7,7V533.9z"/>
<path class="st3" d="M2196,410.4h-56c-4.7,0-8.5-3.8-8.5-8.5v-56c0-4.7,3.8-8.5,8.5-8.5h56c4.7,0,8.5,3.8,8.5,8.5v56
	C2204.5,406.6,2200.7,410.4,2196,410.4z"/>
<path class="st6" d="M2456.7,469.9h-318c-3.6,0-6.5-2.9-6.5-6.5s2.9-6.5,6.5-6.5h318c3.6,0,6.5,2.9,6.5,6.5
	S2460.3,469.9,2456.7,469.9z"/>
<path class="st6" d="M2456.9,438.4h-318c-3.6,0-6.5-2.9-6.5-6.5s2.9-6.5,6.5-6.5h318c3.6,0,6.5,2.9,6.5,6.5
	S2460.5,438.4,2456.9,438.4z"/>
<path class="st6" d="M2299.9,395.4h-47c-3.6,0-6.5-2.9-6.5-6.5s2.9-6.5,6.5-6.5h47c3.6,0,6.5,2.9,6.5,6.5S2303.5,395.4,2299.9,395.4
	z"/>
<path class="st6" d="M2456.9,363.4h-204c-3.6,0-6.5-2.9-6.5-6.5s2.9-6.5,6.5-6.5h204c3.6,0,6.5,2.9,6.5,6.5
	S2460.5,363.4,2456.9,363.4z"/>
<path class="st6" d="M2291.9,501.9h-153.2c-3.6,0-6.5-2.9-6.5-6.5s2.9-6.5,6.5-6.5h153.2c3.6,0,6.5,2.9,6.5,6.5
	S2295.5,501.9,2291.9,501.9z"/>
</svg>
