<?xml version="1.0" encoding="utf-8"?>
<!-- Generator: Adobe Illustrator 25.2.0, SVG Export Plug-In . SVG Version: 6.00 Build 0)  -->
<svg version="1.1" id="Layer_1" xmlns="http://www.w3.org/2000/svg" xmlns:xlink="http://www.w3.org/1999/xlink" x="0px" y="0px"
	 viewBox="0 0 938 604" style="enable-background:new 0 0 938 604;" xml:space="preserve">
<style type="text/css">
	.st0{fill:#F2F2F2;}
	.st1{fill:#3F3D56;}
	.st2{fill:#FFB9B9;}
	.st3{fill:#575A89;}
	.st4{fill:#6C63FF;}
	.st5{fill:none;stroke:#3F3D56;stroke-width:5;stroke-miterlimit:10;}
	.st6{opacity:0.1;enable-background:new    ;}
</style>
<g>
	<path class="st0" d="M899.4,256.9l-0.5-0.1c-2-4.8-8.6-5.2-14.8-8.9c-7-4.2-26.5-12.5-26.5-12.5c-1.6-1.4-3.2-2.5-4.5-3.5l-0.9-3.4
		c-0.9-4.1-1.4-8.3-1.4-12.5c0.8-0.5,1.6-1,2.4-1.6c1.3-0.9,2.4-2,3.2-3.3c1.9-3.3,1.1-7.4,1.8-11.1c1.3-7,8-12.8,6.8-19.8
		c-0.5-2.2-1.4-4.3-2.8-6.2c-0.5-5.1-2.2-10-5-14.3c-1.1-2-2.6-3.8-4.4-5.1c-2.1-1.2-4.5-1.8-7-1.7c-0.4,0-1.2,0.1-2,0.2
		c-0.5-0.1-0.9-0.3-1.4-0.4c-0.3-0.6-0.8-2.4-1-2.2c-0.7,0.5-1.4,1.1-2,1.6c-0.9-0.1-1.7-0.3-2.6-0.4c-0.3-0.9-0.6-1.8-0.9-2.7
		c-0.5,0.8-1,1.6-1.3,2.5c-0.9,0-1.7-0.1-2.6,0c-0.6-0.6-1.2-1.1-1.7-1.7c-0.2,0.9-1,1.7-1.9,1.9c-0.8,0.1-1.6,0.2-2.4,0.3
		c-0.1,0-0.1,0-0.2,0c-4.2-0.1-8.8-0.3-12.4,2c-1.7,1.1-3,2.7-3.9,4.5c-0.4,0.3-0.9,0.6-1.3,0.9c-1.4,1-2.7,2.2-3.6,3.6
		c-0.7,1.2-1.3,2.5-1.6,3.9c-1.4,4.1-2,8.5-1.9,12.8c0.1,4.4,1.8,8.6,4.7,11.9c1.1,1.2,2.4,2.2,3.6,3.2c0.9,4.7,3.2,9.1,6.5,12.5
		c0.6,5.3,1.4,13.2,1.8,19.2c-0.9,0.6-1.7,1.3-2.5,2v1c-2.5,1.6-4.6,3.6-6.3,5.9c0,0-29.9,17.4-36.2,18.8s-8.4,9.1-8.4,9.1
		s-6.3,36.9-5.6,46c0.7,9.1-14.6,146.2-2.8,146.2c1.2,0,2.5,0,3.7-0.1c-0.5,13.1-0.3,38.3,9.5,34.2c9.6-4,6.7-24.8,4.5-36
		c3.9-1.1,6.3-2.8,5.3-5c-0.3-1.3-0.5-2.6-0.4-4c0.6,0.2,1.3,0.5,2.1,0.7c0.4,0.1,0.9,0.3,1.4,0.4c-1.1,26.3-4,102.1-1.7,106.7
		c1.4,2.7,4.4,26.7,7,51.2h79.1c1.9-18.3,3.9-36.2,5.8-43.5c3.8-14.4,23.3-88.1,14.5-115.8c0.2,0,0.4-0.1,0.6-0.1
		c1-0.1,1.9-0.3,2.7-0.4c0.5,3.9,0.9,6.5,1,7c0.1,0.7,1,1,2.4,1.1c-0.6,12.6-0.8,40.1,9.4,35.8c10.1-4.3,6.4-27.3,4.1-37.8
		c4-1.2,7.2-2.7,7.8-3.9c1.4-3.5-7-84.9-7.7-98.2S899.4,256.9,899.4,256.9z"/>
	<path class="st0" d="M673,586.9c0,0-11.5-54.2-0.8-77.6c9.4-20.6,9.4-41.2,0.3-61.3c0.2-0.1,0.3-0.3,0.5-0.5c0,0-2.3-1.5-1.5-18.8
		c0.5-12.4-2.8-25.2-4.8-31.4c2.1,0.9,4.5,1.7,7.4,2.6c4.5,1.4,7.9,1,10.5-0.2c8.9-2.6,9.9-14.7,9.9-14.7l3.8-29.4l4.5-43.8l0,0
		c1.2-3.4,2.9-12-5.9-22.1c-0.4-0.5-0.9-1-1.4-1.5c3.6-4.1,7.3-8.3,7.3-13.6c0-6.4-5.7-11.3-7.8-17.3c-2.9-8.2,1.1-17,2.8-25.6
		c2.6-14.1-1.2-28.6-10.4-39.5c-1.7-2-3.6-3.9-6.1-4.7c-3.8-1.2-7.8,0.5-11.7,0.9c-13,1.6-24.8-9.6-37.8-8.6c-0.9,0-1.7,0.2-2.5,0.6
		c-1.7,0.8-2.6,2.6-3.6,4.1c-4.1,6-10.9,8.9-17.6,12c-0.9,0.2-1.7,0.6-2.4,1.1c-2,0.9-4,1.9-5.9,3.1c-9.5,5.6-10.9,12.9-8,18.9
		c0.8,2.6,2.3,5,4.3,6.9c-1.9,6.9-8.6,13.1-7.4,20.3c0.2,1.3,0.7,2.5,1.3,3.6c1.4,4.2,5.1,7.5,6.9,11.5c0.1,0.2,0.1,0.4,0.2,0.7
		c0.7,3.4-0.4,6.7-1.9,9.9c-14.3,3.3-30.5,9.4-31.7,20.2c-2.2,18.7-8.8,70.4-8.8,70.4s-4.4,23.9,6.2,26.8c3,1.7,7.6,1.2,14.6-3.1
		c-5.1,15.6-8.6,31.7-10.4,48.1c-0.3,2.5-0.9,4.4-2,5c-0.4,0.2,0.4,0.6,2.1,1.1c-0.2,0.7-0.4,1.4-0.6,2.1c-3.2,12.1-5.2,24.5-6.1,37
		c-0.8,11.1-2.3,22.1-4.6,32.9c-6.9,34.6,0,79.1,0,79.1l2.4,11.1h118.1C673.7,594.5,673,586.9,673,586.9z"/>
	<path class="st0" d="M153.7,586.9c0,0-11.5-54.2-0.8-77.6c9.4-20.6,9.4-41.2,0.3-61.3c0.2-0.1,0.3-0.3,0.5-0.5
		c0,0-2.3-1.5-1.5-18.8c0.5-12.4-2.8-25.2-4.8-31.4c2.1,0.9,4.5,1.7,7.4,2.6c4.5,1.4,7.9,1,10.5-0.2c8.9-2.6,9.9-14.7,9.9-14.7
		l3.8-29.4l4.5-43.8l0,0c1.2-3.4,2.9-12-5.9-22.1c-0.4-0.5-0.9-1-1.4-1.5c3.6-4.1,7.3-8.3,7.3-13.6c0-6.4-5.7-11.3-7.8-17.3
		c-2.9-8.2,1.1-17,2.8-25.6c2.6-14.1-1.2-28.6-10.4-39.5c-1.7-2-3.6-3.9-6.1-4.7c-3.8-1.2-7.8,0.5-11.7,0.9
		c-13,1.6-24.8-9.6-37.8-8.6c-0.9,0-1.7,0.2-2.5,0.6c-1.7,0.8-2.6,2.6-3.6,4.1c-4.1,6-10.9,8.9-17.6,12c-0.9,0.2-1.7,0.6-2.4,1.1
		c-2,0.9-4,1.9-5.9,3.1c-9.5,5.6-10.9,12.9-8,18.9c0.8,2.6,2.3,5,4.3,6.9c-1.9,6.9-8.6,13.1-7.4,20.3c0.2,1.3,0.7,2.5,1.3,3.6
		c1.4,4.2,5.1,7.5,6.9,11.5c0.1,0.2,0.1,0.4,0.2,0.7c0.7,3.4-0.4,6.7-1.9,9.9c-14.3,3.3-30.5,9.4-31.7,20.2
		c-2.2,18.7-8.8,70.4-8.8,70.4s-4.4,23.9,6.2,26.8c3,1.7,7.6,1.2,14.6-3.1c-5.1,15.6-8.6,31.7-10.4,48.1c-0.3,2.5-0.9,4.4-2,5
		c-0.4,0.2,0.4,0.6,2.1,1.1c-0.2,0.7-0.4,1.4-0.6,2.1c-3.2,12.1-5.2,24.5-6.1,37c-0.8,11.1-2.3,22.1-4.6,32.9
		c-6.9,34.6,0,79.1,0,79.1l2.4,11.1h118.1C154.4,594.5,153.7,586.9,153.7,586.9z"/>
	<path class="st0" d="M448.7,256.9l-0.5-0.1c-2-4.8-8.6-5.2-14.8-8.9c-7-4.2-26.5-12.5-26.5-12.5c-1.6-1.4-3.2-2.5-4.5-3.5l-0.9-3.4
		c-0.9-4.1-1.4-8.3-1.4-12.5c0.8-0.5,1.6-1,2.4-1.6c1.3-0.9,2.4-2,3.2-3.3c1.9-3.3,1.1-7.4,1.8-11.1c1.3-7,8-12.8,6.8-19.8
		c-0.5-2.2-1.4-4.3-2.8-6.2c-0.5-5.1-2.2-10-5-14.3c-1.1-2-2.6-3.8-4.4-5.1c-2.1-1.2-4.5-1.8-7-1.7c-0.4,0-1.2,0.1-2,0.2
		c-0.5-0.1-0.9-0.3-1.4-0.4c-0.3-0.6-0.8-2.4-1-2.2c-0.7,0.5-1.4,1.1-2,1.6c-0.9-0.1-1.7-0.3-2.6-0.4c-0.3-0.9-0.6-1.8-0.9-2.7
		c-0.5,0.8-1,1.6-1.3,2.5c-0.9,0-1.7-0.1-2.6,0c-0.6-0.6-1.2-1.1-1.7-1.7c-0.2,0.9-1,1.7-1.9,1.9c-0.8,0.1-1.6,0.2-2.4,0.3
		c-0.1,0-0.1,0-0.2,0c-4.2-0.1-8.8-0.3-12.4,2c-1.7,1.1-3,2.7-3.9,4.5c-0.4,0.3-0.9,0.6-1.3,0.9c-1.4,1-2.7,2.2-3.6,3.6
		c-0.7,1.2-1.3,2.5-1.6,3.9c-1.4,4.1-2,8.5-1.9,12.8c0.1,4.4,1.8,8.6,4.7,11.9c1.1,1.2,2.4,2.2,3.6,3.2c0.9,4.7,3.2,9.1,6.5,12.5
		c0.6,5.3,1.4,13.2,1.8,19.2c-0.9,0.6-1.7,1.3-2.5,2v1c-2.5,1.6-4.6,3.6-6.3,5.9c0,0-29.9,17.4-36.2,18.8s-8.4,9.1-8.4,9.1
		s-6.3,36.9-5.6,46c0.7,9.1-14.6,146.2-2.8,146.2c1.2,0,2.5,0,3.7-0.1c-0.5,13.1-0.3,38.3,9.5,34.2c9.6-4,6.7-24.8,4.5-36
		c3.9-1.1,6.3-2.8,5.3-5c-0.3-1.3-0.5-2.6-0.4-4c0.6,0.2,1.3,0.5,2.1,0.7c0.4,0.1,0.9,0.3,1.4,0.4c-1.1,26.3-4,102.1-1.7,106.7
		c1.4,2.7,4.4,26.7,7,51.2h79.1c1.9-18.3,3.9-36.2,5.8-43.5c3.8-14.4,23.3-88.1,14.5-115.8c0.2,0,0.4-0.1,0.6-0.1
		c1-0.1,1.9-0.3,2.7-0.4c0.5,3.9,0.9,6.5,1,7c0.1,0.7,1,1,2.4,1.1c-0.6,12.6-0.8,40.1,9.4,35.8c10.1-4.3,6.4-27.3,4.1-37.8
		c4-1.2,7.2-2.7,7.8-3.9c1.4-3.5-7-84.9-7.7-98.2S448.7,256.9,448.7,256.9z"/>
</g>
<path class="st0" d="M680.6,566.7l-4.9-60.6l-13.9,64.1c0,0,0.2,16.2,0.6,33.9h17.8C680.9,583.8,680.6,566.7,680.6,566.7z"/>
<path class="st0" d="M430,588.2c-1.4-5.7-2.3-11.4-2.9-17.2l-1.9-21c-0.8-5.7-1.7-10.8-2.5-15.3c-6.2-31.8-12.6-33-12.6-33
	c-0.3,0.2-0.5,0.4-0.8,0.7c-0.8,0.7-1.5,1.4-2.1,2.2c-10.2,13-17.1,46.6-20.8,68.9c-2,12.3-3,21.2-3,21.2s0.9,3.8,2.2,9.2H432
	C431.9,598.7,431.2,593.4,430,588.2z"/>
<ellipse class="st1" cx="210" cy="169" rx="95" ry="86.4"/>
<path class="st2" d="M366.5,451.5L366.5,451.5c0,0,32-22,32-32s22-75,34-46s-17,70-17,70s-32,58-51,68s-35,4-35,4v-27l18.3-27.1
	C352,455.2,359,451.5,366.5,451.5z"/>
<path class="st3" d="M275.5,298.3c0,0,48,15.2,53,22.2s7-5,21,41S367,452,367,452s-34.5,11.5-30.5,56.5s-6,94-6,94H318l-27.5-85
	l33-129C323.5,388.5,276.6,309.2,275.5,298.3z"/>
<circle class="st2" cx="259.5" cy="196.5" r="60"/>
<path class="st2" d="M282.5,241.5c0,0-17,56-2,64s32,44,32,44l-26,29h-60l-27-30l-11-51l15-12c0,0,16-40,16-61
	S282.5,241.5,282.5,241.5z"/>
<path class="st4" d="M287.5,303.5c0,0-12-3-5,9s14,34-11,35s-50-12-58-39s-11-25-14-24s-35,34-35,34l11,62l4,222h146c0,0,6-64-4-79
	s9-53,9-53s17-26,4-76S292.5,303.5,287.5,303.5z"/>
<path class="st3" d="M206.5,284.5c0,0-15-7-28,5s-42,22-42,28s25,177,8,207s-35,78-35,78h83.4c0,0,13.6-50,27.6-77s13-103,9-126
	S206.5,284.5,206.5,284.5z"/>
<polygon class="st2" points="118.5,549.5 123.4,602.5 177.4,602.5 172.5,536.5 "/>
<polygon class="st1" points="364.5,521.5 377.5,602.5 666.5,602.5 691.5,439.5 "/>
<polygon class="st1" points="702.5,428.5 705.5,443.5 331.5,533.5 331.5,520.5 "/>
<polygon class="st1" points="544.5,455.5 542.5,472.5 564.5,469.5 555.5,452.5 "/>
<path class="st5" d="M423.5,283.5c0,0,44-3,56,31s40,95,51,104s23,33,21,41"/>
<path class="st4" d="M430,283c0,4.7-5,8.5-13,8.5s-12-3.8-12-8.5s4-8.5,12-8.5S430,278.3,430,283z"/>
<path class="st3" d="M356,439c0,0,7.5-31.5-6.5-77.5s-16-34-21-41s-53-22.2-53-22.2c0.3,3.6,5.6,14.5,12.6,27.6
	c-1.3-4.7-3.1-9.3-5.6-13.5c-7-12,5-9,5-9c5,0,34,41,47,91s-4,76-4,76L356,439z"/>
<path class="st3" d="M276,298c0,0,5.9,22.5,11,25.7s34.9,34.3,34.9,34.3L318,333l-16-24l-4.3-3.1L276,298z"/>
<path class="st6" d="M143,367l1.4-51.5c0,0-32.9,14-35.9,74s5,173,16,174s63-11,63-11s8-145,5-164S143,367,143,367z"/>
<path class="st3" d="M145.5,315.5h-8.1c0,0-32.9,14-35.9,74s5,173,16,174s63-11,63-11s8-145,5-164S145.5,315.5,145.5,315.5z"/>
<ellipse class="st1" cx="188" cy="180.5" rx="62" ry="69.5"/>
<ellipse class="st2" cx="232.5" cy="218.5" rx="12.5" ry="18.5"/>
<circle class="st1" cx="126" cy="111" r="51"/>
<path class="st1" d="M132.6,151.9c-25.1,12.8-55.8,2.8-68.6-22.3c-2.9-5.7-4.7-11.9-5.3-18.3c-4.2,27.8,14.9,53.9,42.7,58.1
	s53.9-14.9,58.1-42.7c0.6-4.1,0.8-8.4,0.4-12.5C157.4,130.3,147.3,144.4,132.6,151.9z"/>
<path class="st1" d="M98,119.4c-17.4-22.2-13.4-54.2,8.8-71.6c5-3.9,10.8-6.9,16.9-8.7c-28.1,1.2-50,24.9-48.8,53.1
	c1.2,28.1,24.9,50,53.1,48.8c4.2-0.2,8.3-0.9,12.4-2.1C123.9,139.7,108.1,132.4,98,119.4z"/>
<ellipse class="st1" cx="263" cy="150" rx="36" ry="26"/>
</svg>
