<?xml version="1.0" encoding="utf-8"?>
<!-- Generator: Adobe Illustrator 25.2.0, SVG Export Plug-In . SVG Version: 6.00 Build 0)  -->
<svg version="1.1" id="Layer_1" xmlns="http://www.w3.org/2000/svg" xmlns:xlink="http://www.w3.org/1999/xlink" x="0px" y="0px"
	 viewBox="0 0 2586 539.3" style="enable-background:new 0 0 2586 539.3;" xml:space="preserve">
<style type="text/css">
	.st0{fill:#F2F2F2;}
	.st1{fill:#6C63FF;}
	.st2{fill:#CCCCCC;}
	.st3{fill:#FFB8B8;}
	.st4{fill:#2F2E41;}
	.st5{fill:#3F3D56;}
	.st6{opacity:0.2;enable-background:new    ;}
</style>
<path class="st0" d="M1917.9,406.2v130h-325.7c-37.1,0-67.3-29.2-67.3-65s30.2-65,67.3-65H1917.9z"/>
<path class="st1" d="M1925.9,535.2c0,2.8-2.2,5-5,5h-334.5c-37.8,0-68.5-30.7-68.5-68.5s30.7-68.5,68.5-68.5l0,0h334.5
	c2.8,0,5,2.2,5,5s-2.2,5-5,5h-334.5c-32.3,0-58.5,26.2-58.5,58.5s26.2,58.5,58.5,58.5l0,0h334.5
	C1923.6,530.2,1925.9,532.5,1925.9,535.2z"/>
<path class="st2" d="M1917.9,436.2h-350c-0.6,0-1-0.4-1-1s0.4-1,1-1h350c0.6,0,1,0.4,1,1S1918.4,436.2,1917.9,436.2z"/>
<path class="st2" d="M1917.9,460.2h-350c-0.6,0-1-0.4-1-1s0.4-1,1-1h350c0.6,0,1,0.4,1,1S1918.4,460.2,1917.9,460.2z"/>
<path class="st2" d="M1917.9,484.2h-350c-0.6,0-1-0.4-1-1s0.4-1,1-1h350c0.6,0,1,0.4,1,1S1918.4,484.2,1917.9,484.2z"/>
<path class="st2" d="M1917.9,508.2h-350c-0.6,0-1-0.4-1-1s0.4-1,1-1h350c0.6,0,1,0.4,1,1S1918.4,508.2,1917.9,508.2z"/>
<path class="st0" d="M2169.6,430.7L2088,531.9l-253.6-204.4c-28.9-23.3-34.1-64.9-11.6-92.8c22.5-27.9,64.3-31.7,93.2-8.4
	L2169.6,430.7z"/>
<path class="st2" d="M2094.9,536.2c-1.7,2.1-4.9,2.5-7,0.8L1827.4,327c-29.5-23.7-34.1-66.9-10.4-96.3
	c23.7-29.5,66.9-34.1,96.3-10.4l260.5,209.9c2.2,1.7,2.5,4.9,0.8,7s-4.9,2.5-7,0.8l0,0l-260.5-209.9c-25.2-20.3-62-16.3-82.3,8.8
	s-16.3,62,8.8,82.3l260.5,209.9C2096.3,530.9,2096.6,534,2094.9,536.2z"/>
<path class="st2" d="M2150.8,454.1l-272.5-219.6c-0.4-0.3-0.5-1-0.2-1.4c0.3-0.4,1-0.5,1.4-0.2c0,0,0,0,0,0L2152,452.5
	c0.4,0.3,0.5,1,0.2,1.4C2151.8,454.3,2151.2,454.4,2150.8,454.1C2150.8,454.1,2150.8,454.1,2150.8,454.1L2150.8,454.1z"/>
<path class="st2" d="M2135.7,472.7l-272.5-219.6c-0.4-0.3-0.5-1-0.1-1.4c0.3-0.4,1-0.5,1.4-0.2L2137,471.2c0.4,0.3,0.5,1,0.2,1.4
	C2136.8,473,2136.2,473.1,2135.7,472.7C2135.7,472.7,2135.7,472.7,2135.7,472.7z"/>
<path class="st2" d="M2120.7,491.4l-272.5-219.6c-0.4-0.3-0.5-1-0.1-1.4c0.3-0.4,1-0.5,1.4-0.2l272.5,219.6c0.4,0.3,0.5,1,0.2,1.4
	C2121.7,491.7,2121.1,491.8,2120.7,491.4C2120.7,491.4,2120.7,491.4,2120.7,491.4z"/>
<path class="st2" d="M2105.6,510.1l-272.5-219.6c-0.4-0.3-0.5-1-0.2-1.4c0.3-0.4,1-0.5,1.4-0.2c0,0,0,0,0,0l272.5,219.6
	c0.4,0.3,0.5,1,0.2,1.4C2106.7,510.4,2106,510.5,2105.6,510.1C2105.6,510.1,2105.6,510.1,2105.6,510.1z"/>
<path class="st2" d="M1664,539.3H922c-0.6,0-1-0.4-1-1s0.4-1,1-1h742c0.6,0,1,0.4,1,1S1664.6,539.3,1664,539.3z"/>
<polygon class="st3" points="1781.9,392.6 1770.4,392.6 1765,348.5 1781.9,348.5 "/>
<path class="st4" d="M1762.3,389.3h22l0,0v13.9l0,0h-35.9l0,0l0,0C1748.4,395.5,1754.6,389.3,1762.3,389.3L1762.3,389.3z"/>
<polygon class="st3" points="1665.1,392.6 1653.6,392.6 1648.2,348.5 1665.1,348.5 "/>
<path class="st4" d="M1645.5,389.3h22l0,0v13.9l0,0h-35.9l0,0l0,0C1631.6,395.5,1637.8,389.3,1645.5,389.3
	C1645.5,389.3,1645.5,389.3,1645.5,389.3z"/>
<path class="st4" d="M1703.2,65.5v-5c0-17.8,14.4-32.2,32.2-32.2l0,0c17.8,0,32.2,14.4,32.2,32.2l0,0v5c0,12.8-10.4,23.2-23.2,23.2
	l0,0h-18C1713.7,88.7,1703.2,78.3,1703.2,65.5C1703.2,65.5,1703.2,65.5,1703.2,65.5z"/>
<circle class="st3" cx="1735.5" cy="65.9" r="24.6"/>
<path class="st3" d="M1850.3,198.1"/>
<path class="st3" d="M1601.9,150.3c3.8-3.6,9.7-3.4,13.3,0.4c0.4,0.4,0.7,0.8,1,1.3l21.1-4l5.5,12.2l-29.8,5.2
	c-4.5,2.6-10.3,1-12.8-3.6C1598,158,1598.7,153.3,1601.9,150.3z"/>
<path class="st2" d="M1716.3,105.9l0.3,0.4l-34.5,22.7l-58.3,18.6c-1.6,0.5-2.6,2.1-2.4,3.7l1.3,10.9c0.2,1.9,2,3.3,3.9,3.1
	c0.1,0,0.2,0,0.3-0.1l54.8-11.8c2.7-0.6,5.2-1.7,7.4-3.2l38.8-27.6c2.9-2,4.4-5.4,4.2-8.9c-0.5-5.5-5.3-9.6-10.8-9.1
	c-1.7,0.1-3.3,0.7-4.7,1.6L1716.3,105.9z"/>
<path class="st4" d="M1770.6,380c-1.8,0-3.4-1.1-4.1-2.7l-52.4-129.5c-0.3-0.8-1.2-1.1-2-0.8c-0.4,0.2-0.7,0.5-0.8,0.9l-42.8,126.1
	c-0.7,2.4-3.2,3.7-5.6,3c-0.1,0-0.2-0.1-0.3-0.1l-14.3-5.4c-1.6-0.6-2.7-2-2.9-3.7c-6.5-56.2,49.8-198,50.4-199.5l0.2-0.4l51.3,11.3
	l0.1,0.1c20.5,22.3,37.3,163.1,40.4,191.1c0.2,2.1-1,4.1-3,4.7l-12.7,4.5C1771.6,380,1771.1,380,1770.6,380z"/>
<path class="st2" d="M1726.4,183.9c-12.4,0-26.3-2.5-30.5-12.7l-0.1-0.2l0.1-0.2c3.4-5.5,7.8-14.9,5.4-16.7c-4.7-3.5-7-9.2-6.8-17
	c0.4-17,12-32,28.8-37.5h0c4.7-1.5,9.4-2.7,14.3-3.7c7.1-1.4,14.5,0.4,20.1,5c5.7,4.6,9,11.5,9.1,18.9c0.2,18.1-2.6,43.4-16.9,60.7
	c-0.7,0.8-1.6,1.3-2.6,1.5C1740.4,183.2,1733.4,183.9,1726.4,183.9z"/>
<path class="st3" d="M1721.8,183.3c1.4-5,6.6-8,11.7-6.7c0.5,0.1,1,0.3,1.4,0.5l16-14.5l11.1,7.5l-22.9,20.2
	c-2.1,3.8-6.6,5.7-10.8,4.6C1723.4,193.5,1720.4,188.4,1721.8,183.3C1721.8,183.3,1721.8,183.3,1721.8,183.3z"/>
<path class="st2" d="M1748.4,183.4c-1,0-2-0.4-2.8-1l-6.3-5.2c-1.9-1.6-2.2-4.4-0.6-6.3c0.2-0.3,0.5-0.5,0.7-0.7l26.4-20.3
	c0.7-0.5,0.8-1.4,0.3-2.1l-16.3-21.6c-3.9-5.2-3.5-12.4,0.9-17.1l0,0c4.7-5.1,12.5-5.7,17.9-1.4l0.1,0.1l17,24.4
	c6.6,5.2,7.8,14.7,2.6,21.3c-0.8,1.1-1.8,2-2.9,2.9l-34.2,26.1C1750.3,183.1,1749.4,183.4,1748.4,183.4z"/>
<path class="st4" d="M1713.7,59V46.8l21.8-9.5l20.7,9.5V59c0,1.1-0.9,2-2,2h-38.5C1714.6,61,1713.7,60.1,1713.7,59z"/>
<path class="st4" d="M1734.5,29.8c-3.2-10.2,3.5-22,13.5-26c9.9-4.1,21.8-1.2,30.2,5.5s13.6,16.7,16.3,27.1
	c2.8,10.4,3.3,21.2,3.8,31.9c12.2,2.2,20.5,16.7,16.3,28.4s-19.9,17.5-30.7,11.4c-10.8-6.1-13.9-22.5-6.1-32.1
	c9.2-11.3,7.4-27.9-3.9-37.1c-7.5-6.1-17.8-7.6-26.8-3.8C1741,37.5,1733.5,30.9,1734.5,29.8z"/>
<path class="st1" d="M1597.4,103c-14.6-0.1-29-3.3-42.3-9.3c-1.6-0.7-2.7-2.3-2.7-4.1V53.2c0-2.5,2-4.5,4.5-4.5h81
	c2.5,0,4.5,2,4.5,4.5v36.4c0,1.8-1,3.4-2.7,4.1l0,0C1626.4,99.8,1612,102.9,1597.4,103z"/>
<path class="st1" d="M1597.4,73.5c-0.6,0-1.2-0.1-1.7-0.4l-64.2-27.1c-2.3-1-3.4-3.6-2.4-5.9c0.5-1.1,1.4-2,2.5-2.5l64.2-24.4
	c1-0.4,2.2-0.4,3.2,0l63.4,24.4c2.3,0.9,3.5,3.5,2.6,5.8c-0.4,1.1-1.3,2-2.4,2.5l-63.4,27.1C1598.6,73.4,1598,73.5,1597.4,73.5z"/>
<circle class="st5" cx="1559.9" cy="90.2" r="6"/>
<path class="st6" d="M1662.7,42.2l-63.4,27.1c-1,0.4-2.1,0.4-3.1,0L1532,42.2c-0.8-0.3-1.5-0.9-1.9-1.7c-1.1,1.9-0.4,4.4,1.5,5.5
	c0.1,0.1,0.3,0.2,0.4,0.2l64.2,27.1c1,0.4,2.1,0.4,3.1,0l63.4-27.1c2-0.9,3-3.2,2.1-5.2c-0.1-0.1-0.1-0.3-0.2-0.4
	C1664.2,41.3,1663.5,41.9,1662.7,42.2z"/>
<path class="st5" d="M1560.4,90.2c0.6,0,1-0.4,1-1V55.7l33-12c0.6,0,1-0.4,1-1c0-0.6-0.4-1-1-1l-33,12c-0.5,0-1.1,0.2-1.4,0.6
	c-0.4,0.4-0.6,0.9-0.6,1.4v33.5C1559.4,89.8,1559.8,90.2,1560.4,90.2z"/>
</svg>
